<?xml version="1.0" encoding="utf-8"?>
<!-- Generator: Adobe Illustrator 21.1.0, SVG Export Plug-In . SVG Version: 6.00 Build 0)  -->
<svg version="1.1" id="Layer_1" xmlns="http://www.w3.org/2000/svg" xmlns:xlink="http://www.w3.org/1999/xlink" x="0px" y="0px"
	 viewBox="0 0 579 410" style="enable-background:new 0 0 579 410;" xml:space="preserve">
<style type="text/css">
	.st0{fill:#FFFFFF;}
	.st1{fill:#E2000F;}
	.st2{fill:#FDC600;}
	.st3{fill:#004990;}
</style>
<g>
	<path id="Kontur_4_" class="st0" d="M549.7,216c-12.8,2.5-28.9,5-46.5,7.4c0.2-0.4,0.3-0.7,0.3-0.7l12.7-77.8
		c8.3-40.4-4.7-76.9-49.5-76.9c-17.5,0-31.9,8.2-40,13.3c-6.5-7.6-18.6-13.3-30.9-13.3c-8,0-26.3,1.5-43.5,13.8l2-11.5
		c-9.7-0.9-47.5,0.1-57.8,0.8l12.6-66.6c-18.1-1.4-64.8-3.9-116,3.4l-13.3,64.7C129.5,87,97.6,133.5,97.6,197.3
		c0,11.9,1.4,22.2,4.3,31.1c-43.6,6.7-75,18-94.9,26.3c-0.7,34.5,9.4,93.5,40.9,148.9c19.5-9.9,93.6-49.5,185.9-49.5
		c64.4,0,159.8,33.4,264.9,33.4c34.9,0,58.4-7.7,71.9-13.5C582.7,312.7,568,253.7,549.7,216"/>
	<path id="Welle_rot_1_" class="st1" d="M535.2,294.7c-22.9,15.6-69.2,33-140.5,15.1c-6.8-1.8-13.3-3.5-19.6-5.5
		c-44.9-19.4-90.7-40.5-109.2-54.2c51.6,8.1,139.8,15.9,269.2-6.8c0,0,7.2,17.7,11.3,40.1L535.2,294.7z M43,329.5
		c5.2,18.3,15.6,41.4,15.6,41.4s84.9-47.4,199.3-39.6c25.9,1.8,48.6,9,48.6,9S260,310,250.6,307c-44.8-11.1-87.5-14.4-112.7-15.3
		C137.9,291.7,76,298.8,43,329.5"/>
	<path id="Welle_gelb_1_" class="st2" d="M546.5,283.4c-3,2.7-5.4,4.7-11.3,8.6c-22.9,15.7-69.2,35.7-140.5,17.8
		c-6.8-1.8-13.3-3.6-19.6-5.5c-65-19-104.3-43.9-190.8-54.5c-73.8,2.1-120.1,10.3-152.6,22c1.7,24.2,6.9,42.5,11.2,57.7
		c6-3,51.6-26.3,94.9-37.8c20.3-5.5,42-9.1,61.9-7.9c66.5,4.2,120.3,38.6,179.8,66.6c41.4,11.5,129.9,19,169.2,5.8
		C548.8,356.1,554.2,325.6,546.5,283.4"/>
	<path id="dm_1_" class="st3" d="M206.8,126c-26.9,0-42.6,37.8-42.6,64.4c0,10.8,2.7,15.8,8.5,15.8c15.2,0,41-43.9,46.1-71.3l1.3-7
		C216.4,127,212.2,126,206.8,126 M238.7,239.3l-39.3,0.1c1.8-10.4,5.1-21.9,10.6-37.2h-0.6c-12.4,20.7-30,40.6-52.1,40.6
		c-22.8,0-34.3-14.7-34.3-45.5c0-54.2,28.2-103.9,91.3-103.9c3.4,0,6.9,0.3,12.4,1.2l6.3-33.1v-0.3c-6.4-1.2-15.8-2.3-24.2-2.9
		l5.5-26.8c20-2,40.5-3.5,64.4-2.6L238.7,239.3z M475.1,239.4h-39l14.2-88c2.9-14.4,0.8-19.9-5.8-19.9c-13.2,0-37.2,35.1-42.7,69.5
		l-6.2,38.5h-39l14.6-88c2.8-14.4,0.9-19.9-5.8-19.9c-13.2,0-36.5,34.6-42.9,68.6l-7.5,39.3H276l21-110.4v-0.8
		c-6.3-1.2-15.8-2.4-24.2-2.9l5.4-26.9c20.8-2.3,40.3-3.5,62-2.5c-2.3,11.2-6.1,24.1-11,36.8h0.6c13-22.1,26.8-39.2,52.2-39.2
		c17.1,0,28.1,8.9,28.1,28.3c0,3.5-0.9,7.2-2.3,13l0.3,0.3c13.2-23.9,29.3-41.5,54.6-41.5c27.9,0,33.7,20.2,28.5,47L475.1,239.4z"/>
</g>
</svg>
